<?xml version="1.0" standalone="no"?>
<!DOCTYPE svg PUBLIC "-//W3C//DTD SVG 1.1//EN"
"http://www.w3.org/Graphics/SVG/1.1/DTD/svg11.dtd">

<svg width="416" height="170" view_box="0 0 416 170"
xmlns="http://www.w3.org/2000/svg"
xmlns:link="http://www.w3.org/1999/xlink">\n\n<desc>Généré par Mocodo 2.3.7 le Fri, 18 Jun 2021 09:05:39</desc>

<rect id="frame" x="0" y="0" width="416" height="170" fill="#ffffbf" stroke="none" stroke-width="0"/>

<!-- Association doit avoir une categories -->
<line x1="51" y1="85" x2="208" y2="85" stroke="#f46d43" stroke-width="2"/>
<text x="98" y="102.0" fill="#3288bd" font-family="Verdana" font-size="12">1,1</text>
<line x1="365" y1="85" x2="208" y2="85" stroke="#f46d43" stroke-width="2"/>
<text x="296" y="102.0" fill="#3288bd" font-family="Verdana" font-size="12">1,N</text>
<g id="association-doit avoir une categories">
	<path d="M 277 60 a 14 14 90 0 1 14 14 V 85 h -166 V 74 a 14 14 90 0 1 14 -14" fill="#fdae61" stroke="#fdae61" stroke-width="0"/>
	<path d="M 291 85.0 v 11 a 14 14 90 0 1 -14 14 H 139 a 14 14 90 0 1 -14 -14 V 85.0 H 166" fill="#fee08b" stroke="#fee08b" stroke-width="0"/>
	<rect x="125" y="60" width="166" height="50" fill="none" rx="14" stroke="#f46d43" stroke-width="2"/>
	<line x1="125" y1="85" x2="291" y2="85" stroke="#f46d43" stroke-width="1"/>
	<text x="132" y="77.7" fill="#000000" font-family="Verdana" font-size="12">doit avoir une categories</text>
	<text x="132" y="102.8" fill="#000000" font-family="Verdana" font-size="12">1 category max</text>
</g>

<!-- Entity tasks -->
<g id="entity-tasks">
	<g id="frame-tasks">
		<rect x="9" y="9" width="84" height="25" fill="#abdda4" stroke="#abdda4" stroke-width="0"/>
		<rect x="9" y="34.0" width="84" height="127" fill="#e6f598" stroke="#e6f598" stroke-width="0"/>
		<rect x="9" y="9" width="84" height="152" fill="none" stroke="#66c2a5" stroke-width="2"/>
		<line x1="9" y1="34" x2="93" y2="34" stroke="#66c2a5" stroke-width="1"/>
	</g>
	<text x="34" y="26.7" fill="#000000" font-family="Verdana" font-size="12">tasks</text>
	<text x="14" y="51.7" fill="#000000" font-family="Verdana" font-size="12">id</text>
	<line x1="14" y1="54" x2="26" y2="54" stroke="#000000" stroke-width="1"/>
	<text x="14" y="68.7" fill="#000000" font-family="Verdana" font-size="12">title</text>
	<text x="14" y="85.8" fill="#000000" font-family="Verdana" font-size="12">completion</text>
	<text x="14" y="102.8" fill="#000000" font-family="Verdana" font-size="12">category_id</text>
	<text x="14" y="119.8" fill="#000000" font-family="Verdana" font-size="12">status</text>
	<text x="14" y="136.8" fill="#000000" font-family="Verdana" font-size="12">created_at</text>
	<text x="14" y="153.8" fill="#000000" font-family="Verdana" font-size="12">updated_ad</text>
</g>

<!-- Entity categories -->
<g id="entity-categories">
	<g id="frame-categories">
		<rect x="323" y="26" width="84" height="25" fill="#abdda4" stroke="#abdda4" stroke-width="0"/>
		<rect x="323" y="51.0" width="84" height="93" fill="#e6f598" stroke="#e6f598" stroke-width="0"/>
		<rect x="323" y="26" width="84" height="118" fill="none" stroke="#66c2a5" stroke-width="2"/>
		<line x1="323" y1="51" x2="407" y2="51" stroke="#66c2a5" stroke-width="1"/>
	</g>
	<text x="333" y="43.7" fill="#000000" font-family="Verdana" font-size="12">categories</text>
	<text x="328" y="68.7" fill="#000000" font-family="Verdana" font-size="12">id</text>
	<line x1="328" y1="71" x2="340" y2="71" stroke="#000000" stroke-width="1"/>
	<text x="328" y="85.8" fill="#000000" font-family="Verdana" font-size="12">name</text>
	<text x="328" y="102.8" fill="#000000" font-family="Verdana" font-size="12">status</text>
	<text x="328" y="119.8" fill="#000000" font-family="Verdana" font-size="12">created_at</text>
	<text x="328" y="136.8" fill="#000000" font-family="Verdana" font-size="12">updated_ad</text>
</g>
</svg>